<svg version="1.2" xmlns="http://www.w3.org/2000/svg" viewBox="0 0 500 500" width="500" height="500">
	<style>
		.s0 { fill: #76b228 } 
		.s1 { fill: #78b22c } 
	</style>
	<path class="s0" d="m269.06 404.07c-6.59 6.66-13.09 12.97-20.35 20.03-10.41-10.68-20.63-20.73-30.35-31.24-20.34-21.99-39.12-45.36-54.66-70.94-10.79-17.77-20.18-36.58-28.28-55.73-5.46-12.92-9.03-27.07-10.82-41.01-1.92-14.98-2.89-30.48 1.16-45.48 2.7-10.04 4.92-20.51 9.58-29.65 5.55-10.89 12.9-21.02 20.57-30.6 5.07-6.33 11.8-11.47 18.26-16.52 8.48-6.63 18.19-11.23 28.27-14.98 5.16-1.91 10.27-4.12 15.59-5.38 14.37-3.39 28.91-5.22 43.7-2.75 6.81 1.14 13.81 1.47 20.45 3.24 7.5 2 14.8 4.94 21.97 7.99 4.32 1.84 8.4 4.41 12.18 7.21 0.98 0.72 1.24 4.12 0.41 5.27-3.98 5.55-8.45 10.74-12.75 16.06-3.62 4.47-7.42 8.82-10.83 13.44-4.17 5.64-5.93 5.95-11.82 2.76-21.46-11.64-42.88-11.77-64.65-0.22-10.27 5.45-18.74 12.7-25.41 21.86-7 9.59-12.11 20.23-12.26 32.53-0.08 7.21-0.97 14.6 0.29 21.58 1.33 7.36 4.26 14.58 7.44 21.42 4.26 9.2 11.48 16.45 19.41 22.37 10.15 7.57 21.24 13.88 34.69 13.67 6.45-0.09 12.95 0.53 19.34-0.12 8.83-0.9 16.8-4.49 24.53-9.01 16.08-9.41 26.24-23.35 32.42-40.5 3.42-9.51 3.91-19.61 2.46-29.35-0.76-5.07 1.03-8.23 3.5-11.27 9.71-11.93 19.78-23.58 29.72-35.32 2.95-3.48 5.13-3.32 6.8 0.67 3.54 8.48 7.94 16.77 10.2 25.6 4.43 17.34 7.64 34.96 3.38 53.01-2.65 11.28-3.84 23-7.45 33.95-4.28 12.97-10.1 25.49-15.94 37.88-3.98 8.42-8.84 16.47-13.86 24.33-6.46 10.15-13.34 20.05-20.28 29.89-13.87 19.7-29.86 37.61-46.61 55.31z"/>
	<path class="s1" d="m332.78 150.76c-5.29 6.31-10.32 12.38-15.35 18.43-11.26 13.55-22.55 27.07-33.76 40.65q-14.3 17.32-28.42 34.8c-3.17 3.93-5.82 4.02-10.01 0.17-14.82-13.56-29.68-27.08-44.53-40.6-3.17-2.88-6.22-5.93-9.63-8.5-3.01-2.26-2.38-4.47-0.51-6.69 4.65-5.55 9.24-11.19 14.37-16.27 1.26-1.24 5.42-1.57 6.66-0.49 11.96 10.45 23.59 21.3 35.83 32.51 5-6.09 9.62-11.81 14.35-17.43 5.32-6.33 10.85-12.5 16.1-18.89 5.03-6.13 9.77-12.5 14.74-18.68 4.67-5.81 9.49-11.5 14.23-17.25q7.48-9.03 14.93-18.08c0.2-0.24 0.16-0.66 0.34-0.91 4.47-6.28 6.35-6.87 11.89-1.89 5.14 4.62 9.72 9.91 14.17 15.23 0.9 1.07 0.87 4.12-0.02 5.28-4.82 6.29-10.04 12.27-15.38 18.61z"/>
</svg>