<svg version="1.2" xmlns="http://www.w3.org/2000/svg" viewBox="0 0 800 801" width="800" height="801">
	<defs>
		<clipPath clipPathUnits="userSpaceOnUse" id="cp1">
			<path d="m60.93 62.27h677.74v677.73h-677.74z"/>
		</clipPath>
		<clipPath clipPathUnits="userSpaceOnUse" id="cp2">
			<path d="m192.54 193.87h414.92v414.93h-414.92z"/>
		</clipPath>
		<clipPath clipPathUnits="userSpaceOnUse" id="cp3">
			<path d="m400 193.87c-114.58 0-207.46 92.89-207.46 207.46 0 114.58 92.88 207.47 207.46 207.47 114.58 0 207.46-92.89 207.46-207.47 0-114.57-92.88-207.46-207.46-207.46z"/>
		</clipPath>
		<clipPath clipPathUnits="userSpaceOnUse" id="cp4">
			<path d="m192 193.33h416v416h-416z"/>
		</clipPath>
		<clipPath clipPathUnits="userSpaceOnUse" id="cp5">
			<path d="m192.54 193.87h414.92v414.93h-414.92z"/>
		</clipPath>
		<clipPath clipPathUnits="userSpaceOnUse" id="cp6">
			<path d="m400 193.87c-114.58 0-207.46 92.89-207.46 207.46 0 114.58 92.88 207.47 207.46 207.47 114.58 0 207.46-92.89 207.46-207.47 0-114.57-92.88-207.46-207.46-207.46z"/>
		</clipPath>
		<clipPath clipPathUnits="userSpaceOnUse" id="cp7">
			<path d="m254.67 213.33h430.87v304h-430.87z"/>
		</clipPath>
		<clipPath clipPathUnits="userSpaceOnUse" id="cp8">
			<path d="m205.33 206.67h386.67v386.2h-386.67z"/>
		</clipPath>
	</defs>
	<style>
		.s0 { fill: #f9b60c } 
		.s1 { fill: #1d1d1e } 
		.s2 { fill: #fdfdfd } 
		.s3 { fill: #b4b4b4 } 
	</style>
	<g id="Clip-Path" clip-path="url(#cp1)">
		<g>
			<path class="s0" d="m714.36 454.36c13.3 0 24.19-10.89 24.19-24.19v-58.49c0-13.31-10.89-24.19-24.19-24.19h-25.12c-13.3 0-27.38-10.41-31.3-23.13l-21.43-52.03c-6.29-11.73-3.74-29.01 5.66-38.41l17.78-17.78c9.4-9.42 9.4-24.81 0-34.22l-41.36-41.35c-9.41-9.41-24.8-9.41-34.22 0l-17.77 17.77c-9.41 9.42-26.71 11.96-38.42 5.66l-52.04-21.43c-12.71-3.91-23.11-17.99-23.11-31.3v-25.11c0-13.31-10.89-24.2-24.2-24.2h-58.49c-13.3 0-24.18 10.89-24.18 24.2v25.11c0 13.31-10.42 27.39-23.12 31.3l-52.03 21.43c-11.73 6.3-29.02 3.75-38.42-5.66l-17.78-17.78c-9.41-9.41-24.8-9.41-34.21 0l-41.36 41.36c-9.41 9.4-9.41 24.8 0 34.21l17.79 17.78c9.41 9.41 11.95 26.69 5.66 38.42l-21.43 52.03c-3.91 12.72-18 23.12-31.31 23.12h-25.11c-13.3 0-24.18 10.88-24.18 24.19v58.5c0 13.3 10.88 24.19 24.18 24.19h25.11c13.31 0 27.4 10.4 31.31 23.11l21.44 52.05c6.29 11.71 3.75 29.01-5.66 38.41l-17.79 17.79c-9.41 9.4-9.41 24.79 0 34.2l41.35 41.36c9.41 9.41 24.8 9.4 34.21 0l17.79-17.79c9.41-9.4 26.7-11.95 38.41-5.65l52.04 21.43c12.71 3.91 23.11 17.99 23.11 31.3v25.12c0 13.3 10.89 24.19 24.19 24.19h58.49c13.31 0 24.19-10.89 24.19-24.19v-25.12c0-13.31 10.41-27.39 23.12-31.3l52.03-21.43c11.72-6.3 29.02-3.76 38.42 5.65l17.79 17.79c9.41 9.41 24.81 9.4 34.21 0l41.35-41.36c9.4-9.4 9.41-24.8 0-34.21l-17.77-17.78c-9.41-9.41-11.96-26.71-5.66-38.42l21.42-52.04c3.91-12.71 18-23.11 31.31-23.11zm-314.77 86.01c-77.01 0-139.45-62.43-139.45-139.45 0-77.02 62.44-139.45 139.45-139.45 77.01 0 139.46 62.43 139.46 139.45 0 77.02-62.45 139.45-139.46 139.45z"/>
		</g>
	</g>
	<g id="Clip-Path" clip-path="url(#cp2)">
		<g>
			<g id="Clip-Path" clip-path="url(#cp3)">
				<g>
					<g>
						<g id="Clip-Path" clip-path="url(#cp4)">
							<g>
								<g id="Clip-Path" clip-path="url(#cp5)">
									<g>
										<g id="Clip-Path" clip-path="url(#cp6)">
											<g>
												<path class="s1" d="m192.54 193.87h414.92v414.93h-414.92z"/>
											</g>
										</g>
									</g>
								</g>
							</g>
						</g>
					</g>
				</g>
			</g>
		</g>
	</g>
	<g id="Clip-Path" clip-path="url(#cp7)">
		<g>
			<path class="s2" d="m685.73 217.95l-83.32-3.49c-126.92 67.12-193.05 175.82-217.3 223.62-24.46-43.9-66.2-83.94-66.2-83.94l-63.8 33.69c82.45 18.61 122.61 102.42 138.22 127.59 4.24 6.81 7.39-10.84 8.06-12.79 10.97-33.52 38.38-69.49 59.1-97.69 21.1-28.65 45.44-54.61 71.98-78.25 39.33-35.1 82.57-66.99 127.51-94.58 8.43-5.14 16.95-9.75 25.75-14.16z"/>
		</g>
	</g>
	<g id="Clip-Path" clip-path="url(#cp8)">
		<g>
			<path class="s3" d="m398.87 593.12q-13.82 0.01-27.89-2.03c-105.24-15.4-178.4-113.57-163.09-218.85 15.4-105.24 113.56-178.39 218.84-163.09 22.36 3.27 43.69 10.3 63.4 20.91l-12.09 22.47c-17.09-9.19-35.59-15.3-54.99-18.13-91.35-13.3-176.55 50.21-189.91 141.53-13.29 91.35 50.2 176.55 141.53 189.91 91.35 13.27 176.55-50.23 189.91-141.56 3.79-26.44 1.49-52.45-6.82-77.3l24.19-8.11c9.6 28.66 12.25 58.62 7.88 89.06-14.03 95.91-96.76 165.18-190.96 165.19z"/>
		</g>
	</g>
</svg>